<?xml version="1.0" encoding="UTF-8" standalone="no"?>
<!DOCTYPE svg PUBLIC "-//W3C//DTD SVG 1.1//EN" "http://www.w3.org/Graphics/SVG/1.1/DTD/svg11.dtd">
<svg width="100%" height="100%" viewBox="0 0 475 345" version="1.1" xmlns="http://www.w3.org/2000/svg" xmlns:xlink="http://www.w3.org/1999/xlink" xml:space="preserve" xmlns:serif="http://www.serif.com/" style="fill-rule:evenodd;clip-rule:evenodd;stroke-linejoin:round;stroke-miterlimit:1.41421;">
    <g transform="matrix(1,0,0,1,-148.381,-394.109)">
        <g transform="matrix(0.248645,0,0,0.248645,292.086,355.157)">
            <g transform="matrix(4.16667,0,0,4.16667,-9123.33,-1659.16)">
                <path d="M2125.64,450.549C2120.06,450.549 2115.51,455.094 2115.51,460.68L2115.51,633.809C2115.51,639.396 2120.06,643.94 2125.64,643.94L2405.76,643.94C2411.34,643.94 2415.89,639.396 2415.89,633.809L2415.89,460.68C2415.89,455.094 2411.34,450.549 2405.76,450.549L2125.64,450.549ZM2405.76,658.692L2125.64,658.692C2111.92,658.692 2100.76,647.53 2100.76,633.809L2100.76,460.68C2100.76,446.96 2111.92,435.797 2125.64,435.797L2405.76,435.797C2419.48,435.797 2430.64,446.96 2430.64,460.68L2430.64,633.809C2430.64,647.53 2419.48,658.692 2405.76,658.692Z" style="fill:rgb(90,90,90);fill-rule:nonzero;"/>
            </g>
            <g transform="matrix(4.16667,0,0,4.16667,-9123.33,-1659.16)">
                <path d="M2440.36,693.481L2153.81,693.481C2139.86,693.481 2128.52,682.139 2128.52,668.197C2128.52,664.124 2131.82,660.821 2135.89,660.821C2139.97,660.821 2143.27,664.124 2143.27,668.197C2143.27,674.004 2148,678.729 2153.81,678.729L2440.36,678.729C2446.16,678.729 2450.89,674.004 2450.89,668.197L2450.89,491.091C2450.89,485.283 2446.16,480.559 2440.36,480.559C2436.28,480.559 2432.98,477.256 2432.98,473.183C2432.98,469.109 2436.28,465.806 2440.36,465.806C2454.3,465.806 2465.64,477.149 2465.64,491.091L2465.64,668.197C2465.64,682.139 2454.3,693.481 2440.36,693.481Z" style="fill:rgb(90,90,90);fill-rule:nonzero;"/>
            </g>
            <g transform="matrix(4.16667,0,0,4.16667,-9123.33,-1659.16)">
                <path d="M2113.43,653.701C2111.47,653.701 2109.52,652.924 2108.06,651.386C2105.27,648.423 2105.4,643.755 2108.37,640.96L2191.72,562.306C2194.3,559.875 2198.24,559.618 2201.11,561.692L2247.33,595.117L2316.09,531.845C2317.54,530.51 2319.45,529.815 2321.43,529.905C2323.4,529.999 2325.25,530.877 2326.57,532.344L2424.01,640.817C2426.73,643.847 2426.48,648.511 2423.45,651.233C2420.42,653.955 2415.75,653.705 2413.03,650.674L2320.58,547.756L2252.89,610.052C2250.31,612.428 2246.41,612.654 2243.57,610.602L2197.41,577.223L2118.49,651.689C2117.07,653.034 2115.25,653.701 2113.43,653.701Z" style="fill:rgb(90,90,90);fill-rule:nonzero;"/>
            </g>
            <g transform="matrix(4.16667,0,0,4.16667,-9123.33,-1659.16)">
                <path d="M2234.69,513.543C2228.64,513.543 2223.72,518.467 2223.72,524.518C2223.72,530.563 2228.64,535.48 2234.69,535.48C2240.74,535.48 2245.65,530.563 2245.65,524.518C2245.65,518.467 2240.74,513.543 2234.69,513.543ZM2234.69,550.232C2220.51,550.232 2208.97,538.697 2208.97,524.518C2208.97,510.332 2220.51,498.792 2234.69,498.792C2248.87,498.792 2260.41,510.332 2260.41,524.518C2260.41,538.697 2248.87,550.232 2234.69,550.232Z" style="fill:rgb(90,90,90);fill-rule:nonzero;"/>
            </g>
        </g>
        <g transform="matrix(1,0,0,1,-100.154,-3.29297)">
            <text x="245.942px" y="738.957px" style="font-family:'HiraKakuProN-W3', 'Hiragino Kaku Gothic ProN', sans-serif;font-weight:300;font-size:32px;fill:rgb(90,90,90);">すべてのスポットを確認しました</text>
        </g>
    </g>
</svg>
