<?xml version="1.0" encoding="UTF-8" standalone="no"?>
<!DOCTYPE svg PUBLIC "-//W3C//DTD SVG 1.1//EN" "http://www.w3.org/Graphics/SVG/1.1/DTD/svg11.dtd">
<svg width="100%" height="100%" viewBox="0 0 35 35" version="1.1" xmlns="http://www.w3.org/2000/svg" xmlns:xlink="http://www.w3.org/1999/xlink" xml:space="preserve" xmlns:serif="http://www.serif.com/" style="fill-rule:evenodd;clip-rule:evenodd;stroke-linejoin:round;stroke-miterlimit:1.41421;">
    <g transform="matrix(1,0,0,1,-659.959,-817.362)">
        <g transform="matrix(0.117547,0,0,0.117547,581.755,775.768)">
            <path d="M813.155,606.055C755.522,606.055 897.609,637.756 897.609,580.122C897.609,522.488 747.961,584.478 805.594,584.478C863.228,584.478 870.789,606.055 813.155,606.055ZM813.155,353.847C731.499,353.847 665.302,420.043 665.302,501.7C665.302,583.357 731.499,649.553 813.155,649.553C894.812,649.553 961.008,583.357 961.008,501.7C961.008,420.043 894.812,353.847 813.155,353.847Z" style="fill:rgb(90,90,90);fill-rule:nonzero;"/>
            <path d="M840.156,501.7L870.241,471.615C876.189,465.667 876.189,456.022 870.241,450.073L864.782,444.615C858.834,438.666 849.189,438.666 843.24,444.615L813.155,474.7L783.071,444.615C777.122,438.666 767.477,438.666 761.528,444.615L756.07,450.073C750.121,456.022 750.121,465.667 756.07,471.615L786.155,501.7L756.07,531.785C750.121,537.734 750.121,547.378 756.07,553.327L761.528,558.785C767.477,564.734 777.122,564.734 783.071,558.785L813.155,528.701L843.24,558.785C849.189,564.734 858.834,564.734 864.782,558.785L870.24,553.327C876.189,547.378 876.189,537.734 870.24,531.785L840.156,501.7Z" style="fill:white;fill-rule:nonzero;"/>
        </g>
    </g>
</svg>
