<?xml version="1.0" encoding="UTF-8" standalone="no"?>
<!DOCTYPE svg PUBLIC "-//W3C//DTD SVG 1.1//EN" "http://www.w3.org/Graphics/SVG/1.1/DTD/svg11.dtd">
<svg width="100%" height="100%" viewBox="0 0 450 450" version="1.1" xmlns="http://www.w3.org/2000/svg" xmlns:xlink="http://www.w3.org/1999/xlink" xml:space="preserve" xmlns:serif="http://www.serif.com/" style="fill-rule:evenodd;clip-rule:evenodd;stroke-linejoin:round;stroke-miterlimit:1.41421;">
    <g transform="matrix(1,0,0,1,-526.578,-292.937)">
        <g transform="matrix(4.16667,0,0,4.16667,0,0)">
            <g transform="matrix(1,0,0,1,180.351,107.444)">
                <path d="M0,33.667C-9.296,33.667 -16.833,26.13 -16.833,16.834C-16.833,7.537 -9.296,0 0,0C9.296,0 16.833,7.537 16.833,16.834C16.833,26.13 9.296,33.667 0,33.667M53.973,27.404L53.973,6.262L39.442,6.262C38.51,2.776 37.125,-0.523 35.359,-3.576L45.639,-13.856L30.69,-28.806L20.41,-18.525C17.357,-20.291 14.058,-21.676 10.571,-22.608L10.571,-37.139L-10.57,-37.139L-10.57,-22.608C-14.057,-21.676 -17.356,-20.291 -20.409,-18.525L-30.689,-28.805L-45.639,-13.855L-35.359,-3.576C-37.125,-0.523 -38.51,2.776 -39.442,6.263L-53.972,6.263L-53.972,27.405L-39.442,27.405C-38.51,30.891 -37.125,34.19 -35.359,37.244L-45.638,47.523L-30.689,62.473L-20.409,52.193C-17.356,53.959 -14.057,55.344 -10.57,56.276L-10.57,70.806L10.571,70.806L10.571,56.276C14.058,55.344 17.357,53.959 20.411,52.192L30.69,62.472L45.64,47.522L35.359,37.243C37.125,34.19 38.51,30.89 39.442,27.404L53.973,27.404Z" style="fill:rgb(204,204,204);fill-rule:nonzero;"/>
            </g>
        </g>
    </g>
</svg>
