<?xml version="1.0" encoding="UTF-8" standalone="no"?>
<!DOCTYPE svg PUBLIC "-//W3C//DTD SVG 1.1//EN" "http://www.w3.org/Graphics/SVG/1.1/DTD/svg11.dtd">
<svg width="100%" height="100%" viewBox="0 0 354 354" version="1.1" xmlns="http://www.w3.org/2000/svg" xmlns:xlink="http://www.w3.org/1999/xlink" xml:space="preserve" xmlns:serif="http://www.serif.com/" style="fill-rule:evenodd;clip-rule:evenodd;stroke-linejoin:round;stroke-miterlimit:1.41421;">
    <g transform="matrix(1,0,0,1,-628.279,-1228.41)">
        <g transform="matrix(4.16667,0,0,4.16667,0,0)">
            <g transform="matrix(1,0,0,1,44.1415,-58.6395)">
                <path d="M156.715,414.141L178.648,436.074C181.579,439.005 186.332,439.005 189.263,436.074C192.194,433.143 192.194,428.391 189.263,425.46L167.33,403.527L156.715,414.141Z" style="fill:rgb(178,178,178);fill-rule:nonzero;"/>
            </g>
        </g>
        <g transform="matrix(4.16667,0,0,4.16667,0,0)">
            <g transform="matrix(1,0,0,1,44.1415,-58.6395)">
                <path d="M160.807,407.618C150.215,418.21 133.042,418.21 122.45,407.618C111.858,397.026 111.858,379.853 122.45,369.261C133.042,358.67 150.214,358.669 160.806,369.261C171.398,379.853 171.398,397.026 160.807,407.618ZM116.892,363.703C103.23,377.365 103.23,399.514 116.892,413.176C130.552,426.838 152.703,426.838 166.365,413.176C180.026,399.515 180.026,377.365 166.364,363.703C152.703,350.042 130.552,350.042 116.892,363.703Z" style="fill:rgb(178,178,178);fill-rule:nonzero;"/>
            </g>
        </g>
    </g>
</svg>
